<svg aria-hidden="true" style="position: absolute; width: 0; height: 0; overflow: hidden;" version="1.1" xmlns="http://www.w3.org/2000/svg" xmlns:xlink="http://www.w3.org/1999/xlink">
<defs>
<symbol id="icon-circle-line" viewBox="0 0 32 32">
<path d="M21.595 10.403l10.072 5.488-10.072 5.532-5.51 10.050-5.51-10.050-10.072-5.532 10.072-5.488 5.51-10.094 5.51 10.094z"></path>
</symbol>
<symbol id="icon-heart" viewBox="0 0 32 32">
<path d="M21.3 5.188c-2.113 0-4.050 0.987-5.3 2.612-1.25-1.625-3.188-2.612-5.3-2.612-3.694 0-6.7 3.019-6.7 6.731 0 1.744 0.662 3.4 1.869 4.662l10.131 10.231 9.95-10.050c1.313-1.269 2.050-2.994 2.050-4.844 0-3.713-3.006-6.731-6.7-6.731v0z"></path>
</symbol>
<symbol id="icon-location" viewBox="0 0 32 32">
<path d="M16 2.667c-5.153 0-9.333 4.18-9.333 9.333 0 7 9.333 17.333 9.333 17.333s9.333-10.333 9.333-17.333c0-5.153-4.18-9.333-9.333-9.333zM16 15.333c-1.84 0-3.333-1.493-3.333-3.333s1.493-3.333 3.333-3.333 3.333 1.493 3.333 3.333-1.493 3.333-3.333 3.333z"></path>
</symbol>
<symbol id="icon-megaphone" viewBox="0 0 32 32">
<path fill="#000" style="fill: var(--color1, #000)" d="M14.392 31.877c-0.548 0.187-1.175-0.184-1.393-0.828l-3.391-9.936 1.982-0.678 3.395 9.949c0.218 0.637-0.048 1.305-0.592 1.492z"></path>
<path fill="#000" style="fill: var(--color1, #000)" d="M14.096 32c-0.16 0-0.323-0.037-0.48-0.116-0.317-0.157-0.569-0.45-0.691-0.811l-3.391-9.936c-0.014-0.037 0.007-0.082 0.048-0.095l1.982-0.678c0.020-0.007 0.041-0.007 0.058 0.003s0.031 0.024 0.037 0.044l3.395 9.949c0.228 0.674-0.058 1.386-0.64 1.587-0.099 0.034-0.208 0.051-0.317 0.051zM9.704 21.162l3.367 9.864c0.109 0.324 0.334 0.589 0.613 0.725 0.225 0.109 0.467 0.129 0.684 0.055 0.504-0.174 0.749-0.8 0.545-1.397l-3.371-9.878-1.839 0.63z"></path>
<path fill="#b9ff66" style="fill: var(--color2, #b9ff66)" d="M11.239 11.859l-6.411 4.574-2.496 2.592-0.981 1.734-0.003 0.014c-0.194 0.3-0.082 0.991 0.283 1.696 0.357 0.695 0.861 1.179 1.216 1.206l-0.010 0.007 1.883 0.204 3.524-0.562 7.48-2.677 9.363 1.597c-2.336-0.436-5.489-3.559-7.78-7.977-2.288-4.414-3.017-8.778-2.012-10.93h-0.003l-4.052 8.522z"></path>
<path fill="#fff" style="fill: var(--color3, #fff)" d="M26.632 22.052c2.298-1.194 1.854-6.606-0.993-12.089s-7.016-8.96-9.314-7.766c-2.298 1.194-1.854 6.606 0.993 12.089s7.016 8.96 9.314 7.766z"></path>
<path fill="#000" style="fill: var(--color1, #000)" d="M25.621 22.364c-1.001 0-2.206-0.559-3.504-1.645-1.767-1.478-3.5-3.757-4.879-6.421-2.087-4.033-2.949-8.168-2.193-10.535 0.252-0.79 0.674-1.342 1.25-1.638 1.144-0.586 2.754-0.089 4.539 1.403 1.767 1.478 3.5 3.757 4.879 6.421 2.091 4.033 2.952 8.168 2.193 10.535-0.252 0.79-0.674 1.342-1.25 1.638-0.31 0.163-0.657 0.242-1.035 0.242zM17.337 2.036c-0.351 0-0.678 0.072-0.97 0.225-0.541 0.276-0.936 0.8-1.175 1.553-0.746 2.333 0.112 6.424 2.182 10.423 2.819 5.44 6.953 8.921 9.217 7.759 0.541-0.276 0.936-0.8 1.175-1.553 0.746-2.333-0.112-6.424-2.183-10.423-2.455-4.735-5.901-7.984-8.246-7.984z"></path>
<path fill="#000" style="fill: var(--color1, #000)" d="M25.621 22.364c-1.001 0-2.206-0.559-3.504-1.645-1.767-1.478-3.5-3.757-4.879-6.421-2.087-4.033-2.949-8.168-2.193-10.535 0.252-0.79 0.674-1.342 1.25-1.638 0.766-0.395 1.767-0.296 2.894 0.283 1.079 0.555 2.247 1.54 3.384 2.844 0.027 0.031 0.024 0.078-0.007 0.106s-0.078 0.024-0.106-0.007c-2.308-2.65-4.644-3.835-6.095-3.089-0.541 0.276-0.936 0.8-1.175 1.553-0.746 2.333 0.112 6.424 2.182 10.423 2.451 4.731 5.901 7.984 8.243 7.984 0.351 0 0.678-0.072 0.97-0.225 0.541-0.276 0.936-0.8 1.175-1.553 0.746-2.333-0.112-6.424-2.183-10.423-0.616-1.192-1.311-2.313-2.057-3.331-0.024-0.034-0.017-0.082 0.017-0.106s0.082-0.017 0.106 0.017c0.752 1.025 1.447 2.153 2.070 3.352 2.087 4.029 2.949 8.165 2.189 10.532-0.252 0.79-0.674 1.342-1.25 1.638-0.31 0.163-0.657 0.242-1.035 0.242z"></path>
<path fill="#b9ff66" style="fill: var(--color2, #b9ff66)" d="M21.418 15.073c0.532-0.277 0.43-1.529-0.229-2.798s-1.624-2.073-2.157-1.797c-0.532 0.277-0.43 1.529 0.229 2.798s1.624 2.073 2.157 1.797z"></path>
<path fill="#b9ff66" style="fill: var(--color2, #b9ff66)" d="M21.185 15.204c-0.586 0-1.403-0.756-1.992-1.897-0.49-0.947-0.691-1.921-0.511-2.483 0.065-0.198 0.17-0.337 0.317-0.412 0.579-0.296 1.57 0.511 2.257 1.836 0.49 0.947 0.691 1.921 0.511 2.483-0.065 0.198-0.17 0.337-0.317 0.412-0.082 0.041-0.17 0.061-0.266 0.061zM19.264 10.497c-0.071 0-0.14 0.014-0.197 0.044-0.112 0.058-0.194 0.167-0.245 0.327-0.167 0.525 0.027 1.458 0.501 2.371 0.627 1.209 1.57 2.023 2.057 1.771 0.112-0.058 0.194-0.167 0.245-0.327 0.167-0.528-0.031-1.458-0.501-2.371-0.552-1.059-1.341-1.815-1.859-1.815z"></path>
<path fill="#000" style="fill: var(--color1, #000)" d="M25.104 21.093c-0.878 0-1.934-0.49-3.071-1.441-1.546-1.294-3.064-3.29-4.27-5.62-1.828-3.529-2.581-7.15-1.92-9.224 0.221-0.695 0.592-1.179 1.1-1.441 1.164-0.596 2.877 0.092 4.702 1.887 0.031 0.031 0.031 0.075 0 0.106s-0.075 0.031-0.106 0c-1.777-1.747-3.429-2.429-4.528-1.86-0.47 0.242-0.814 0.695-1.025 1.352-0.65 2.037 0.099 5.613 1.91 9.111 2.142 4.139 5.155 6.979 7.205 6.979 0.306 0 0.589-0.065 0.848-0.194 0.47-0.242 0.814-0.695 1.025-1.352 0.65-2.037-0.099-5.613-1.91-9.111-0.548-1.056-1.161-2.047-1.822-2.943-0.024-0.034-0.017-0.082 0.017-0.106s0.082-0.017 0.105 0.017c0.667 0.906 1.284 1.901 1.835 2.963 1.828 3.529 2.581 7.15 1.92 9.224-0.221 0.695-0.592 1.179-1.1 1.441-0.279 0.14-0.586 0.211-0.916 0.211z"></path>
<path fill="#000" style="fill: var(--color1, #000)" d="M4.722 23.958c-0.003 0-0.007 0-0.007 0l-1.883-0.204c-0.010 0-0.020-0.003-0.031-0.010-0.388-0.061-0.878-0.552-1.236-1.24-0.381-0.725-0.494-1.434-0.286-1.768l0.003-0.010 0.981-1.737c0.003-0.007 0.007-0.010 0.010-0.014l2.496-2.592c0.003-0.003 0.007-0.007 0.010-0.010l6.394-4.564 4.045-8.505c0.010-0.017 0.024-0.031 0.044-0.037s0.041-0.007 0.058 0.003c0.037 0.017 0.054 0.061 0.037 0.099-1.025 2.197-0.214 6.564 2.012 10.862 2.23 4.305 5.339 7.494 7.732 7.933 0.037 0.007 0.065 0.041 0.061 0.082-0.003 0.037-0.037 0.065-0.075 0.068l-0.065-0.003c-0.003 0-0.007 0-0.010 0l-9.282-1.591-7.463 2.67c-0.003 0-0.010 0.003-0.014 0.003l-3.524 0.562c-0.003 0.003-0.007 0.003-0.010 0.003zM2.887 23.611l1.835 0.198 3.507-0.562 7.477-2.674c0.014-0.003 0.024-0.007 0.037-0.003l8.355 1.431c-2.257-0.991-4.896-3.917-6.854-7.698-1.944-3.754-2.812-7.565-2.336-9.973l-3.602 7.562c-0.007 0.010-0.014 0.020-0.024 0.027l-6.404 4.575-2.486 2.578-0.981 1.737c0 0.003-0.003 0.007-0.003 0.007-0.177 0.276-0.058 0.957 0.286 1.621 0.337 0.651 0.824 1.141 1.158 1.165 0.014 0 0.024 0.003 0.034 0.010z"></path>
<path fill="#fff" style="fill: var(--color3, #fff)" d="M11.249 11.832l4.042-8.498h0.003c-1.004 2.153-0.272 6.516 2.012 10.93 2.291 4.421 5.444 7.545 7.787 7.974l-0.065-0.003-9.499-1.628c-1.079-0.191-2.52-1.594-3.551-3.597-1.059-2.054-1.246-4.101-0.776-5.075l0.048-0.102z"></path>
<path fill="#000" style="fill: var(--color1, #000)" d="M25.093 22.313c-0.003 0 0 0 0 0l-0.068-0.003c-0.003 0-0.007 0-0.010 0l-9.499-1.628c-1.141-0.201-2.588-1.662-3.606-3.634-1.154-2.241-1.212-4.237-0.776-5.143l0.051-0.102 4.041-8.495c0.010-0.017 0.024-0.031 0.044-0.037s0.041-0.007 0.058 0.003c0.037 0.017 0.054 0.061 0.037 0.099-1.025 2.197-0.214 6.564 2.012 10.862 2.23 4.305 5.339 7.494 7.732 7.933 0.037 0.007 0.065 0.041 0.061 0.082-0.010 0.034-0.041 0.065-0.078 0.065zM14.903 4.328l-3.585 7.538-0.051 0.102c-0.432 0.899-0.306 2.909 0.776 5.007 0.998 1.935 2.404 3.365 3.5 3.556l0.215 0.037 8.338 1.431c-2.257-0.991-4.896-3.917-6.854-7.698-1.944-3.754-2.812-7.565-2.339-9.973z"></path>
<path fill="#000" style="fill: var(--color1, #000)" d="M4.62 23.948c-0.003 0-0.007 0-0.007 0l-1.784-0.191c-0.010 0-0.020-0.003-0.031-0.010-0.388-0.061-0.878-0.552-1.236-1.24-0.378-0.729-0.49-1.437-0.283-1.771l0.003-0.010 0.981-1.737c0.020-0.037 0.065-0.048 0.102-0.027s0.048 0.065 0.027 0.102l-0.981 1.744c0 0.003-0.003 0.007-0.003 0.007-0.177 0.276-0.058 0.957 0.286 1.621 0.337 0.651 0.824 1.141 1.158 1.165 0.010 0 0.024 0.003 0.031 0.010l1.743 0.187c0.041 0.003 0.072 0.041 0.065 0.082-0.003 0.037-0.034 0.068-0.072 0.068z"></path>
<path fill="#fff" style="fill: var(--color3, #fff)" d="M4.739 23.873c-0.579-0.041-1.389-0.862-1.978-1.996-0.623-1.202-0.769-2.446-0.388-2.888l-1.018 1.771-0.007 0.014c-0.194 0.3-0.082 0.991 0.283 1.696 0.357 0.695 0.861 1.179 1.216 1.206l-0.010 0.007 1.903 0.191z"></path>
<path fill="#000" style="fill: var(--color1, #000)" d="M4.739 23.948c-0.003 0-0.003 0-0.007 0-0.014 0-0.031-0.003-0.044-0.003l-1.859-0.187c-0.010 0-0.020-0.003-0.031-0.010-0.388-0.061-0.878-0.552-1.236-1.24-0.378-0.729-0.49-1.437-0.283-1.771l0.003-0.010 0.895-1.56c0.034-0.089 0.078-0.167 0.133-0.232 0.024-0.031 0.068-0.034 0.099-0.014 0.031 0.024 0.041 0.065 0.020 0.099l-0.126 0.215c-0.201 0.542-0.003 1.604 0.514 2.599 0.562 1.087 1.328 1.88 1.876 1.952l0.041 0.003c0.041 0.003 0.072 0.041 0.068 0.082 0.003 0.048-0.027 0.078-0.065 0.078zM2.884 23.611l1.301 0.133c-0.5-0.32-1.052-0.981-1.491-1.833-0.426-0.821-0.637-1.672-0.603-2.285l-0.678 1.182c0 0.003-0.003 0.007-0.003 0.007-0.177 0.276-0.058 0.957 0.286 1.621 0.337 0.651 0.824 1.141 1.158 1.165 0.010 0 0.024 0.003 0.031 0.010z"></path>
<path fill="#000" style="fill: var(--color1, #000)" d="M8.117 23.338l0.15-0.031c-0.81 0.17-2.091-1.056-2.993-2.796-0.923-1.778-1.096-3.553-0.443-4.077l-0.085 0.085-2.366 2.459c-0.388 0.436-0.245 1.686 0.381 2.895 0.603 1.165 1.457 1.996 2.039 1.993l3.316-0.528z"></path>
<path fill="#000" style="fill: var(--color1, #000)" d="M4.797 23.944c-0.62 0-1.481-0.834-2.104-2.033-0.633-1.226-0.793-2.507-0.371-2.98l2.322-2.412c0.041-0.055 0.089-0.102 0.14-0.143 0.031-0.024 0.075-0.020 0.102 0.007 0.027 0.031 0.027 0.075 0 0.102l-0.133 0.14c-0.473 0.634-0.238 2.255 0.589 3.852 0.892 1.724 2.138 2.905 2.901 2.762l0.010-0.003c0.041-0.007 0.078 0.017 0.089 0.058 0.007 0.041-0.017 0.078-0.058 0.089-0.003 0-0.007 0-0.010 0.003l-0.14 0.027h-0.003l-3.316 0.528c-0.007 0-0.014 0.003-0.017 0.003zM4.447 16.941l-2.012 2.091c-0.375 0.422-0.204 1.655 0.395 2.81 0.586 1.131 1.413 1.948 1.968 1.952l2.928-0.467c-0.79-0.279-1.764-1.332-2.516-2.779-0.715-1.379-0.991-2.783-0.763-3.607z"></path>
<path fill="#000" style="fill: var(--color1, #000)" d="M19.033 10.476c-0.535 0.272-0.456 1.536 0.225 2.796 1.141 2.108 2.050 1.86 2.155 1.822 0.003 0 0.003 0.003 0 0.003l-1.958 1.577c-0.575-0.807-1.124-1.707-1.627-2.677-0.48-0.93-0.885-1.856-1.205-2.756l2.411-0.766z"></path>
<path fill="#000" style="fill: var(--color1, #000)" d="M19.455 16.751c-0.003 0-0.007 0-0.010 0-0.020-0.003-0.037-0.014-0.051-0.031-0.589-0.828-1.137-1.734-1.631-2.684-0.473-0.913-0.882-1.843-1.209-2.762-0.007-0.020-0.007-0.041 0.003-0.058s0.024-0.031 0.044-0.037l2.411-0.766c0.037-0.010 0.078 0.007 0.092 0.044s0 0.078-0.034 0.095c-0.116 0.058-0.201 0.174-0.252 0.344-0.167 0.535 0.037 1.482 0.511 2.35 1.113 2.057 1.971 1.822 2.063 1.788 0.034-0.014 0.075 0.003 0.092 0.034s0.010 0.075-0.017 0.099l-1.965 1.567c-0.014 0.010-0.031 0.017-0.048 0.017zM16.721 11.29c0.323 0.889 0.718 1.788 1.175 2.674 0.477 0.92 1.008 1.795 1.576 2.602l1.699-1.369c-0.388-0.017-1.12-0.307-1.978-1.89-0.497-0.916-0.701-1.884-0.521-2.466 0.024-0.075 0.051-0.14 0.085-0.201l-2.036 0.651z"></path>
</symbol>
<symbol id="icon-play" viewBox="0 0 32 32">
<path d="M25.325 14.556l-17.4-10.356c-0.213-0.125-0.431-0.2-0.681-0.2-0.681 0-1.237 0.563-1.237 1.25h-0.006v21.5h0.006c0 0.688 0.556 1.25 1.237 1.25 0.256 0 0.469-0.087 0.7-0.212l17.381-10.344c0.413-0.344 0.675-0.863 0.675-1.444s-0.262-1.094-0.675-1.444z"></path>
</symbol>
<symbol id="icon-share" viewBox="0 0 32 32">
<path d="M24 21c-0 0-0.001 0-0.002 0-1.132 0-2.154 0.472-2.88 1.23l-0.001 0.001-9.25-5.204c0.085-0.308 0.134-0.662 0.134-1.027s-0.049-0.719-0.141-1.055l0.007 0.028 9.25-5.204c0.726 0.752 1.744 1.219 2.87 1.219 2.202 0 3.988-1.785 3.988-3.987s-1.785-3.987-3.988-3.987c-2.202 0-3.988 1.785-3.988 3.987 0 0.365 0.049 0.718 0.141 1.054l-0.007-0.028-9.25 5.204c-0.729-0.759-1.753-1.231-2.887-1.231-2.209 0-4 1.791-4 4s1.791 4 4 4c1.134 0 2.158-0.472 2.886-1.23l0.001-0.001 9.25 5.204c-0.085 0.308-0.134 0.662-0.134 1.027 0 2.209 1.791 4 4 4s4-1.791 4-4c0-2.209-1.791-4-4-4-0 0-0 0-0 0v0z"></path>
</symbol>
<symbol id="icon-star" viewBox="0 0 32 32">
<path d="M21.595 10.403l10.072 5.488-10.072 5.532-5.51 10.050-5.51-10.050-10.072-5.532 10.072-5.488 5.51-10.094 5.51 10.094z"></path>
</symbol>
<symbol id="icon-arrow_up" viewBox="0 0 32 32">
<path d="M16 0c-8.838 0-16 7.162-16 16s7.162 16 16 16 16-7.163 16-16c0-8.838-7.163-16-16-16zM23.913 15.912c-0.781 0.781-2.047 0.781-2.828 0l-3.084-3.081v11.169c0 1.106-0.896 2-2 2s-2-0.894-2-2v-11.169l-3.088 3.081c-0.781 0.781-2.047 0.781-2.828 0s-0.781-2.047 0-2.828l6.444-6.444c0.553-0.553 1.166-0.641 1.472-0.641 0.305 0 0.916 0.087 1.416 0.587l6.444 6.444c0.834 0.838 0.834 2.1 0.053 2.881z"></path>
</symbol>
<symbol id="icon-vector" viewBox="0 0 32 32">
<path d="M27.635 15.971c10.724 12.215 0.821 22.118-11.394 11.394-12.215 10.724-22.118 0.821-11.394-11.394-10.724-12.215-0.821-22.118 11.394-11.394 12.215-10.724 22.118-0.821 11.394 11.394z"></path>
</symbol>
<symbol id="icon-twitter" viewBox="0 0 32 32">
<path d="M16 0c8.831 0 16 7.169 16 16s-7.169 16-16 16c-8.831 0-16-7.169-16-16s7.169-16 16-16zM13.182 24.51c7.080 0 10.951-5.867 10.951-10.951 0-0.168 0-0.335-0.008-0.495 0.75-0.543 1.405-1.221 1.924-1.995-0.686 0.303-1.429 0.511-2.211 0.607 0.798-0.479 1.405-1.229 1.692-2.131-0.742 0.439-1.564 0.758-2.443 0.934-0.702-0.75-1.7-1.213-2.81-1.213-2.123 0-3.847 1.724-3.847 3.847 0 0.303 0.032 0.599 0.104 0.878-3.201-0.16-6.035-1.692-7.934-4.023-0.327 0.567-0.519 1.229-0.519 1.932 0 1.333 0.678 2.514 1.716 3.201-0.631-0.016-1.221-0.192-1.74-0.479v0.048c0 1.868 1.325 3.416 3.089 3.776-0.319 0.088-0.662 0.136-1.014 0.136-0.248 0-0.487-0.024-0.726-0.072 0.487 1.533 1.908 2.642 3.592 2.674-1.317 1.030-2.977 1.644-4.781 1.644-0.311 0-0.615-0.016-0.918-0.056 1.684 1.102 3.712 1.74 5.883 1.74z"></path>
</symbol>
<symbol id="icon-facebook" viewBox="0 0 32 32">
<path d="M32 16.097c0-8.837-7.163-16-16-16s-16 7.163-16 16c0 7.986 5.851 14.605 13.5 15.806v-11.181h-4.063v-4.625h4.063v-3.525c0-4.010 2.389-6.225 6.043-6.225 1.751 0 3.582 0.313 3.582 0.313v3.938h-2.018c-1.988 0-2.607 1.233-2.607 2.499v3.001h4.438l-0.709 4.625h-3.728v11.181c7.649-1.2 13.5-7.82 13.5-15.806z"></path>
</symbol>
<symbol id="icon-linkedin" viewBox="0 0 32 32">
<path d="M16 0c8.831 0 16 7.169 16 16s-7.169 16-16 16c-8.831 0-16-7.169-16-16s7.169-16 16-16zM10.998 24.992v-12.495h-4.154v12.495h4.154zM25.974 24.992v-7.165c0-3.838-2.049-5.623-4.782-5.623-2.203 0-3.19 1.212-3.743 2.063v-1.769h-4.153c0.055 1.172 0 12.495 0 12.495h4.153v-6.978c0-0.373 0.027-0.747 0.137-1.014 0.3-0.746 0.984-1.519 2.131-1.519 1.502 0 2.104 1.146 2.104 2.825v6.685h4.153zM8.949 6.472c-1.421 0-2.35 0.934-2.35 2.159 0 1.199 0.9 2.159 2.295 2.159h0.027c1.448 0 2.35-0.96 2.35-2.159-0.027-1.225-0.902-2.159-2.322-2.159z"></path>
</symbol>
</defs>
</svg>
